<?xml version="1.0" standalone="no"?>
<!DOCTYPE svg PUBLIC "-//W3C//DTD SVG 20010904//EN"
 "http://www.w3.org/TR/2001/REC-SVG-20010904/DTD/svg10.dtd">
<svg version="1.0" xmlns="http://www.w3.org/2000/svg"
 width="500.000000pt" height="500.000000pt" viewBox="0 0 500.000000 500.000000"
 preserveAspectRatio="xMidYMid meet">
<metadata>
Created by potrace 1.14, written by Peter Selinger 2001-2017
</metadata>
<g transform="translate(0.000000,500.000000) scale(0.100000,-0.100000)"
fill="#000000" stroke="none">
<path d="M2071 4761 c-6 -11 -11 -30 -11 -42 0 -22 1 -22 14 -4 24 33 46 12
47 -47 0 -39 3 -48 9 -33 16 37 10 70 -20 108 -27 36 -29 37 -39 18z"/>
<path d="M2887 4759 c-17 -23 -17 -24 0 -28 10 -2 23 -11 30 -20 10 -13 12
-14 12 -1 0 8 -6 28 -12 44 l-13 30 -17 -25z"/>
<path d="M1571 4705 c-14 -49 -50 -283 -53 -345 -1 -25 -1 -126 0 -225 l1
-180 -20 38 c-11 22 -22 37 -24 35 -2 -1 3 -50 11 -108 14 -111 18 -358 5
-344 -15 16 -40 103 -31 106 12 4 36 96 27 104 -8 8 -63 -41 -79 -69 -11 -21
16 -72 32 -62 6 4 10 -6 10 -22 0 -15 11 -51 24 -80 33 -70 82 -101 170 -107
70 -5 91 -13 118 -43 17 -19 16 -19 -65 -18 -83 1 -187 22 -187 37 0 5 -4 6
-10 3 -5 -3 -10 1 -10 9 0 9 0 18 0 21 0 2 -12 17 -27 32 -29 32 -62 98 -63
128 -1 11 -7 33 -13 49 -12 26 -12 22 -9 -45 2 -41 10 -99 17 -129 12 -47 12
-52 0 -36 -17 22 -35 103 -35 156 0 22 -4 40 -9 40 -11 0 -101 -121 -125 -168
-9 -17 -16 -37 -16 -45 0 -8 -10 -22 -21 -33 -25 -22 -69 -115 -69 -144 0 -11
-7 -20 -15 -20 -8 0 -23 -17 -34 -37 -24 -50 -76 -203 -92 -276 -7 -31 -14
-55 -17 -53 -12 13 59 260 112 386 19 45 30 83 26 91 -5 7 -6 18 -3 26 3 7 1
13 -4 13 -12 0 -78 -142 -115 -248 -54 -157 -97 -415 -98 -587 0 -106 25 -337
39 -363 16 -29 25 10 24 103 -2 80 -1 85 8 45 5 -25 18 -81 29 -125 11 -44 19
-96 18 -115 -1 -19 1 -48 5 -65 6 -27 3 -32 -29 -53 l-35 -23 24 -42 c13 -23
50 -90 82 -150 45 -85 55 -110 45 -121 -9 -11 -5 -24 15 -56 24 -38 25 -44 12
-58 -14 -13 -12 -20 16 -66 26 -44 127 -175 165 -215 9 -9 10 -17 2 -26 -13
-15 3 -30 20 -20 6 4 34 -16 62 -44 51 -50 68 -60 68 -42 0 5 8 8 17 7 12 -1
23 15 36 51 21 57 17 106 -7 97 -9 -3 -12 -12 -9 -21 4 -10 2 -14 -4 -10 -6 4
-13 2 -15 -4 -2 -6 -35 22 -72 62 -81 87 -166 196 -145 185 7 -4 6 -1 -4 7
-10 8 -19 25 -20 38 -1 12 -8 24 -17 26 -16 4 -60 73 -60 95 0 7 22 -10 49
-38 27 -28 57 -54 65 -57 9 -4 35 -32 58 -63 75 -100 140 -166 160 -161 10 3
18 0 18 -6 0 -6 11 -1 23 12 16 14 43 78 82 197 37 111 61 170 66 162 14 -21
10 -49 -15 -120 -23 -64 -23 -68 -6 -68 13 0 18 -6 15 -18 -24 -101 -40 -161
-66 -240 -30 -91 -32 -94 -74 -112 l-44 -19 2 -74 c2 -65 -1 -79 -22 -108 -22
-29 -22 -33 -7 -44 15 -11 15 -16 1 -55 -33 -95 -11 -67 36 45 36 84 52 134
52 168 0 26 5 47 10 47 4 0 6 4 3 9 -10 16 24 21 36 5 35 -43 60 -65 66 -59 4
3 -14 26 -40 51 -56 53 -45 60 12 8 22 -20 41 -32 41 -28 8 57 7 64 -4 57 -7
-4 -5 2 3 12 8 10 10 16 4 12 -6 -3 -16 5 -23 19 -10 22 -9 26 7 31 25 6 55
59 47 82 -3 11 -1 22 5 26 5 3 10 2 10 -4 0 -6 7 -8 16 -4 14 5 15 3 6 -14 -6
-11 -9 -23 -6 -26 3 -3 -6 -23 -20 -44 -20 -28 -26 -50 -26 -90 0 -28 5 -55
10 -58 6 -3 10 -3 10 2 0 8 11 10 70 16 23 2 25 -1 22 -31 -2 -33 -1 -34 100
-82 57 -28 114 -50 128 -50 41 0 74 -23 81 -55 6 -25 7 -26 8 -6 1 19 5 22 24
17 12 -4 50 -12 85 -19 49 -9 62 -15 62 -29 0 -11 9 -37 21 -59 11 -23 18 -44
14 -47 -7 -8 -67 -4 -115 8 -92 22 -90 22 -90 1 0 -16 11 -22 53 -30 103 -21
176 -28 180 -17 2 6 7 -13 11 -42 4 -29 16 -70 26 -90 11 -21 29 -79 40 -130
10 -51 26 -107 35 -125 8 -18 16 -44 17 -59 1 -16 8 -28 14 -28 12 0 27 56 19
70 -3 4 2 11 11 14 10 4 14 14 11 26 -3 10 -1 20 4 22 5 2 11 21 13 43 12 120
19 146 40 158 12 7 21 23 22 37 1 33 13 103 19 109 3 2 5 0 5 -6 0 -10 78 -2
178 18 42 8 52 14 52 30 0 15 -5 19 -17 15 -48 -14 -112 -26 -149 -26 -22 0
-45 -5 -50 -10 -6 -6 4 20 22 56 36 74 41 79 106 93 24 6 52 13 61 16 11 5 17
-1 20 -22 4 -27 4 -27 6 5 0 17 6 32 11 32 6 0 10 6 10 14 0 7 7 19 15 26 12
10 15 10 15 0 0 -22 70 -5 174 44 82 38 97 49 91 63 -19 47 -6 56 53 38 17 -6
22 -3 23 11 0 15 3 14 12 -6 11 -23 12 -22 15 23 3 47 -6 74 -44 132 -10 16
-13 26 -6 22 15 -10 15 -7 -3 37 -18 42 -18 41 24 20 27 -14 32 -20 26 -41 -7
-29 14 -83 32 -83 7 0 13 -5 13 -11 0 -5 -4 -8 -10 -4 -5 3 -9 -17 -9 -50 1
-30 5 -55 10 -55 4 0 24 13 42 30 19 16 41 30 48 29 10 0 9 -2 -2 -7 -18 -8
-89 -69 -89 -77 0 -15 24 -1 55 33 l35 37 20 -25 c11 -14 17 -33 14 -43 -6
-18 95 -301 104 -293 2 3 -4 28 -13 56 -16 47 -16 52 -1 63 14 11 13 17 -10
62 -19 38 -24 60 -21 92 4 40 25 73 45 73 6 0 32 20 60 45 30 28 56 43 65 39
8 -3 18 -1 22 5 3 6 1 11 -4 11 -20 0 -11 17 57 98 37 45 83 107 102 138 29
48 32 59 21 76 -10 16 -8 25 10 54 14 24 19 43 15 60 -6 21 9 56 69 165 41 76
75 143 75 149 0 5 -13 16 -30 25 -32 16 -37 36 -20 80 6 16 6 33 1 43 -6 11 0
50 16 112 13 52 28 118 33 145 7 37 8 21 3 -62 -4 -99 -3 -113 11 -113 8 0 18
10 21 23 16 73 25 199 25 346 0 277 -48 507 -155 737 -24 52 -47 94 -52 94
-19 0 -9 -61 22 -137 36 -85 106 -312 104 -341 0 -9 -11 19 -23 63 -48 167
-93 270 -117 270 -8 0 -16 17 -21 44 -4 24 -20 62 -35 84 -16 22 -41 66 -58
97 -16 30 -51 83 -77 117 -26 34 -43 63 -38 65 5 2 2 14 -6 28 -12 22 -14 22
-13 5 1 -11 1 -22 0 -25 -1 -3 -3 -39 -5 -80 -2 -44 -10 -89 -20 -107 -24 -48
-35 -48 -19 0 19 54 31 213 15 203 -6 -4 -14 -23 -17 -44 -10 -61 -36 -122
-56 -133 -11 -5 -17 -14 -15 -18 10 -15 -52 -70 -92 -80 -22 -6 -79 -12 -126
-14 l-86 -2 28 28 c24 24 39 29 97 33 38 3 81 12 96 20 38 19 87 82 101 127 8
27 14 34 20 25 7 -9 8 -4 4 13 -3 15 0 34 9 45 21 28 18 45 -15 79 -19 20 -28
38 -25 48 8 19 31 13 66 -20 17 -16 32 -21 44 -17 15 6 17 4 12 -16 -5 -18 4
-34 39 -73 24 -27 47 -61 50 -76 2 -14 11 -37 19 -51 8 -14 22 -39 31 -55 16
-32 66 -61 84 -50 13 8 -47 125 -98 187 -20 25 -57 72 -82 104 -80 102 -159
168 -177 150 -20 -20 -3 -243 18 -230 12 7 11 0 -2 -30 -7 -14 -17 -23 -22
-19 -6 4 -8 0 -4 -11 4 -9 3 -15 -2 -11 -5 3 -11 1 -13 -5 -6 -20 2 249 11
346 5 54 8 100 6 102 -1 1 -12 -17 -23 -40 l-21 -43 1 180 c1 99 1 210 0 247
-2 80 -27 265 -43 319 -12 39 -29 53 -29 23 0 -20 -49 -124 -59 -124 -4 0 -8
-16 -9 -36 -1 -37 -38 -110 -66 -134 -21 -17 -20 -4 2 28 17 24 42 85 42 100
0 3 -13 -14 -29 -39 -15 -24 -40 -55 -55 -69 -24 -21 -26 -22 -20 -5 3 11 -7
0 -23 -25 -36 -56 -137 -148 -195 -178 l-43 -23 40 37 c45 42 33 37 -39 -14
-41 -30 -47 -32 -37 -13 7 13 10 25 7 28 -3 3 -10 -6 -17 -20 -7 -15 -17 -23
-25 -20 -8 3 -15 -5 -19 -24 -4 -15 -13 -45 -21 -66 -19 -52 -18 -54 14 -26
15 14 35 31 45 39 18 14 18 13 2 -25 -9 -22 -29 -73 -43 -112 -28 -81 -47 -96
-38 -30 5 41 5 41 -11 -10 -20 -68 -48 -75 -40 -10 2 23 8 51 12 62 4 13 1 12
-9 -5 -23 -37 -19 -100 10 -187 23 -67 26 -90 21 -159 -5 -80 -19 -123 -60
-174 l-19 -25 7 25 c8 26 4 21 -86 -96 -17 -23 -46 -82 -65 -130 -18 -49 -33
-84 -34 -78 -1 33 26 140 53 209 17 44 30 88 29 98 0 9 3 15 8 12 19 -12 110
172 110 223 0 15 -2 15 -10 2 -7 -11 -10 -11 -10 -2 0 7 -4 10 -10 7 -6 -4
-10 6 -10 22 -1 15 -7 39 -15 53 -9 15 -14 54 -14 100 -1 84 17 132 69 190
l32 35 -6 -33 c-6 -33 -5 -32 29 18 32 48 42 70 30 70 -5 0 -42 -32 -92 -80
l-36 -35 6 30 c24 108 26 128 17 174 -5 26 -16 63 -24 82 -8 19 -17 42 -20 52
-3 9 -14 17 -24 17 -16 0 -15 -7 15 -67 34 -69 57 -183 35 -169 -8 5 -10 -3
-6 -26 5 -26 3 -30 -6 -18 -10 12 -11 11 -7 -8 3 -12 2 -20 -2 -18 -3 2 -7
-13 -7 -33 -1 -21 -7 -47 -13 -57 -12 -18 -12 -18 -7 1 16 64 17 75 9 75 -6 0
-15 -10 -21 -22 -9 -18 -10 -7 -7 52 l4 75 -13 -50 c-21 -77 -27 -89 -37 -73
-5 7 -9 29 -9 48 -1 29 -2 32 -11 17 -10 -16 -13 -14 -37 22 l-25 39 -31 -41
-31 -42 -6 35 c-6 35 -6 35 -8 -10 -3 -50 -15 -89 -23 -74 -6 9 -33 107 -42
149 -8 43 -6 -42 4 -99 11 -70 7 -82 -13 -35 l-15 34 -9 -25 c-9 -22 -11 -20
-23 29 -19 81 -8 154 37 248 30 62 37 83 27 87 -16 6 -24 -8 -59 -100 -34 -91
-41 -164 -22 -238 l16 -59 -39 38 c-21 20 -42 35 -48 31 -5 -3 -15 7 -22 22
l-13 27 -12 -29 -12 -28 -6 23 c-4 13 -7 35 -8 49 l-1 25 -7 -25 -7 -25 -17
32 c-22 41 -41 54 -27 18 l10 -27 -37 29 c-57 45 -73 49 -28 8 29 -26 33 -33
15 -24 -50 24 -149 100 -185 142 -20 23 -62 69 -93 102 -31 33 -62 69 -69 80
-10 17 -10 14 -3 -13 10 -39 19 -51 74 -109 51 -54 33 -56 -26 -3 -53 46 -78
93 -78 144 0 20 -4 36 -9 36 -8 0 -52 96 -64 140 -2 8 -9 -3 -16 -25z m62
-190 c24 -88 53 -178 65 -200 27 -53 93 -114 167 -153 33 -18 74 -44 90 -58
l30 -25 -50 27 -50 26 48 -46 c34 -32 47 -53 47 -73 0 -38 23 -121 60 -223 26
-72 30 -78 25 -40 -3 25 -17 80 -30 123 -44 137 -29 157 23 31 29 -70 52 -160
71 -284 5 -36 13 -76 16 -90 l7 -25 -22 25 -21 25 16 -34 c26 -53 138 -209
130 -181 -4 14 -18 51 -32 84 -13 32 -22 61 -19 64 3 3 43 -33 89 -79 74 -74
88 -94 115 -164 17 -44 31 -72 32 -62 0 34 -61 174 -93 213 -19 21 -46 57 -60
79 -15 22 -27 35 -27 30 0 -6 7 -21 16 -33 29 -41 10 -31 -23 12 -18 23 -39
67 -47 97 -10 38 -15 46 -15 26 -1 -15 6 -44 14 -64 19 -44 19 -48 1 -34 -19
16 -55 102 -65 157 l-9 45 28 -32 27 -33 7 57 c3 32 15 80 26 109 29 77 34
127 16 171 -18 41 -31 51 -16 11 11 -28 14 -131 4 -121 -4 3 -17 37 -30 74
-20 59 -23 62 -18 26 4 -30 2 -43 -6 -43 -7 0 -10 7 -6 16 4 10 2 13 -6 8 -7
-5 -9 0 -6 14 4 12 3 20 -2 17 -8 -5 -63 135 -56 142 2 3 21 -11 43 -30 l38
-35 -3 47 -4 46 37 -55 c20 -30 34 -47 31 -37 -23 71 -20 73 22 24 23 -26 47
-57 52 -68 17 -30 24 -140 12 -179 -22 -71 -39 -110 -45 -103 -4 3 -7 0 -7 -8
0 -12 -2 -11 -10 1 -8 11 -9 7 -4 -15 14 -69 38 -129 71 -178 52 -77 70 -116
99 -214 17 -60 24 -102 21 -132 -3 -25 -1 -72 4 -105 6 -42 5 -79 -3 -116
l-12 -55 -9 65 c-11 76 -27 144 -32 138 -3 -2 0 -19 5 -38 11 -37 1 -220 -10
-198 -4 7 -10 40 -14 72 -8 74 -42 137 -126 235 -36 42 -73 88 -83 103 -26 41
-63 151 -86 253 -28 129 -56 196 -102 246 -22 24 -61 85 -85 134 -25 50 -43
77 -40 60 5 -23 -1 -18 -24 25 -17 30 -28 44 -24 30 8 -32 3 -26 -28 30 -56
100 -65 112 -104 154 -43 45 -64 101 -84 226 -10 64 -14 238 -6 229 3 -2 25
-76 49 -164z m1773 70 c-8 -118 -32 -247 -55 -300 -10 -22 -35 -55 -57 -74
-21 -19 -39 -39 -39 -45 0 -12 -74 -146 -80 -146 -2 0 -2 8 1 18 3 9 -6 -4
-21 -30 -28 -53 -36 -59 -28 -25 2 12 -17 -19 -44 -69 -27 -50 -63 -105 -80
-122 -40 -41 -68 -100 -88 -187 -55 -242 -87 -317 -181 -418 -68 -74 -109
-149 -120 -218 -11 -71 -23 -81 -25 -19 -1 46 -3 50 -9 25 -8 -30 -8 -29 -10
10 -3 37 -4 36 -9 -15 l-7 -55 -13 45 c-14 47 -9 140 10 213 24 89 73 171 147
244 41 40 78 73 83 73 5 0 2 -17 -7 -37 -32 -74 -55 -138 -46 -128 21 23 121
173 136 205 l18 35 -26 -30 -25 -30 14 55 c8 30 15 75 15 99 0 60 34 181 75
266 41 87 47 58 11 -58 -13 -43 -27 -102 -30 -130 l-6 -52 19 60 c10 33 28 84
39 112 12 29 26 83 32 120 9 57 17 74 48 106 40 41 31 50 -14 15 -29 -22 -29
-22 -10 0 10 11 57 44 105 72 104 62 152 117 179 202 36 115 61 202 73 256 20
85 33 63 25 -43z m-1838 -371 c1 -98 11 -147 13 -58 1 56 3 51 34 -91 9 -44
33 -109 52 -144 l34 -64 -33 21 c-65 40 -97 112 -118 262 -8 54 -8 88 1 123 6
26 12 47 14 47 1 0 3 -43 3 -96z m1869 -54 c-8 -118 -43 -213 -98 -262 -23
-21 -45 -38 -50 -38 -4 0 7 25 25 55 31 51 75 202 77 265 1 22 2 20 10 -9 15
-49 21 -33 21 61 0 72 1 79 10 48 6 -19 8 -73 5 -120z m-385 42 c-72 -70 -110
-143 -153 -290 -18 -62 -36 -112 -42 -112 -5 0 -7 6 -4 14 3 7 8 35 11 62 l6
49 -15 -52 c-8 -28 -23 -68 -34 -89 -20 -36 -22 -36 -34 6 -2 8 11 49 30 90
49 110 55 120 66 113 6 -3 7 -1 4 4 -7 11 40 85 102 162 30 37 105 101 118
101 2 0 -23 -26 -55 -58z m-1056 -44 c78 -101 116 -161 160 -252 35 -74 43
-99 38 -125 -8 -40 -17 -32 -50 45 -18 41 -24 49 -20 27 3 -18 2 -34 -3 -37
-8 -5 -11 4 -51 144 -25 86 -67 173 -105 219 -15 17 -23 31 -18 31 4 0 27 -24
49 -52z m615 -215 c16 -54 38 -111 46 -128 10 -18 19 -62 21 -110 4 -74 2 -85
-27 -145 -19 -40 -29 -53 -25 -35 3 16 3 28 1 25 -8 -8 -95 -232 -106 -275 -6
-22 -15 -47 -21 -55 -9 -13 -11 -13 -19 -1 -5 8 -12 31 -16 50 -8 46 -75 215
-86 219 -5 2 -7 8 -4 13 4 5 1 17 -5 26 -10 16 -11 16 -6 -2 13 -41 -30 26
-49 77 -19 54 -17 166 4 192 6 8 29 66 51 131 21 64 53 139 70 167 18 28 36
62 41 77 10 24 12 23 55 -51 24 -42 58 -121 75 -175z m-274 75 c-3 -8 -6 -5
-6 6 -1 11 2 17 5 13 3 -3 4 -12 1 -19z m-781 -160 c18 -61 56 -111 114 -151
16 -11 19 -16 8 -15 -9 2 -17 -1 -17 -7 -1 -5 4 -10 11 -10 6 0 12 -8 14 -18
2 -17 1 -17 -21 -3 -36 23 -42 19 -15 -9 39 -42 12 -41 -30 0 -22 22 -40 33
-40 26 0 -7 -4 -9 -10 -6 -5 3 -10 21 -10 40 0 18 -9 54 -19 79 -33 76 -38
136 -12 136 4 0 16 -28 27 -62z m1914 29 c0 -18 -9 -58 -20 -90 -11 -31 -20
-69 -21 -84 0 -16 -4 -37 -8 -47 -7 -18 -8 -18 -14 5 -7 23 -7 23 -31 -16 -14
-22 -28 -39 -33 -38 -4 0 -17 -4 -28 -9 -15 -9 -13 -3 8 22 35 41 28 49 -15
19 l-32 -24 24 40 c13 21 18 35 12 31 -7 -4 -12 -4 -12 1 0 4 20 20 45 35 48
29 80 81 91 147 8 51 34 57 34 8z m-1339 -94 c-12 -20 -14 -14 -5 12 4 9 9 14
11 11 3 -2 0 -13 -6 -23z m934 -40 c-4 -21 -16 -69 -28 -108 l-22 -70 -6 40
-7 40 0 -45 c1 -65 -1 -72 -14 -64 -8 5 -9 0 -6 -14 4 -12 2 -22 -3 -22 -5 0
-9 -8 -9 -18 0 -31 -48 -116 -86 -152 l-35 -35 46 100 c54 115 75 171 74 194
0 9 -10 -9 -22 -39 -28 -73 -34 -41 -8 50 13 49 31 83 58 114 35 41 38 42 44
23 4 -19 6 -17 12 11 9 45 19 40 12 -5z m-1120 -13 l-5 35 43 -43 c43 -42 63
-95 80 -205 7 -45 -14 -16 -29 40 -12 46 -13 47 -13 13 -1 -23 18 -75 55 -150
54 -111 54 -114 24 -85 -52 49 -77 97 -94 181 -8 43 -17 90 -20 104 -3 14 -3
0 -1 -30 l4 -55 -30 74 c-16 40 -32 94 -34 120 l-5 46 15 -40 15 -40 -5 35z
m1132 -68 c-7 -73 -35 -165 -67 -219 -11 -18 -15 -33 -9 -33 5 0 12 7 15 15 4
8 9 13 14 10 9 -6 40 29 70 78 12 21 24 36 27 33 9 -9 -19 -77 -53 -127 -33
-49 -33 -50 -6 -29 102 78 186 128 257 152 l80 27 -32 -29 c-17 -15 -29 -30
-27 -33 3 -3 0 -8 -7 -13 -8 -5 -10 -3 -4 6 5 8 3 11 -6 8 -8 -3 -13 -11 -11
-17 1 -7 -2 -10 -7 -7 -5 3 -42 -10 -82 -29 -41 -19 -79 -35 -86 -35 -24 0
-114 -97 -157 -170 -25 -41 -43 -76 -41 -78 2 -2 20 1 39 8 55 18 59 9 20 -40
-20 -25 -56 -84 -79 -132 -43 -88 -127 -188 -157 -188 -8 0 -29 -27 -46 -60
-17 -34 -33 -54 -36 -47 -3 6 -4 -24 -2 -69 2 -53 0 -88 -9 -104 -12 -22 -13
-22 -18 -4 -29 105 -30 134 -14 311 1 11 5 19 10 16 4 -2 7 -2 7 1 0 2 3 13 6
23 5 15 4 15 -5 3 -15 -21 -14 -2 4 56 18 60 81 162 138 223 40 41 36 47 -8
12 -19 -16 -19 -16 0 10 11 14 49 61 83 104 82 101 171 287 187 393 11 67 19
49 12 -26z m-1153 -6 c42 -142 155 -351 220 -405 9 -8 31 -33 48 -55 26 -33
27 -37 7 -20 -44 39 -54 37 -18 -2 75 -81 134 -188 155 -281 4 -23 3 -25 -6
-13 -10 12 -11 12 -5 -5 41 -113 43 -161 16 -280 -17 -76 -19 -79 -30 -52 -7
18 -9 55 -5 100 4 40 3 68 -2 64 -4 -4 -22 21 -39 55 -21 45 -35 62 -47 60 -9
-2 -36 16 -60 41 -24 24 -51 44 -59 44 -8 0 -43 15 -79 32 -36 18 -72 34 -81
36 -24 5 -99 54 -97 63 1 4 -26 36 -60 72 -57 60 -59 65 -37 68 39 5 126 -47
197 -119 37 -38 72 -69 77 -69 5 0 23 -12 40 -26 l31 -26 -9 25 c-20 52 -64
133 -98 180 -37 50 -36 52 16 37 44 -12 52 -4 21 22 -14 11 -19 17 -12 13 10
-5 10 -1 1 19 -7 14 -16 23 -20 20 -5 -3 -6 2 -3 10 4 11 -17 38 -62 84 -55
54 -81 71 -129 87 -64 21 -205 107 -205 125 0 8 6 8 20 0 10 -6 46 -19 78 -29
33 -10 77 -31 98 -48 22 -16 68 -51 104 -79 l65 -49 -33 42 c-37 47 -62 102
-62 135 1 18 6 13 24 -22 13 -25 34 -54 46 -65 20 -18 20 -15 -4 22 -28 43
-70 200 -55 209 12 7 18 -9 30 -73 12 -64 58 -180 74 -187 6 -2 -2 22 -17 53
-31 67 -71 241 -54 241 3 0 12 -24 20 -54z m914 -18 c-9 -51 -39 -122 -56
-132 -15 -9 26 145 44 165 9 11 18 19 19 19 1 0 -2 -23 -7 -52z m262 -52 c-11
-56 -56 -154 -66 -143 -2 2 5 25 16 50 11 25 25 72 31 104 5 32 13 65 16 73
13 32 15 -23 3 -84z m556 -221 c-8 -33 -24 -86 -36 -118 -11 -32 -17 -63 -14
-69 4 -7 2 -8 -5 -4 -6 4 -17 4 -24 -2 -38 -29 -46 -19 -14 18 35 38 68 99 67
124 -1 6 -12 -10 -25 -35 -13 -25 -41 -61 -61 -78 -31 -27 -43 -32 -70 -28
-43 7 -48 -2 -22 -43 11 -19 14 -30 7 -24 -8 6 -27 14 -44 18 -18 4 -25 3 -17
-2 9 -6 -3 -19 -43 -45 -30 -21 -55 -33 -55 -28 0 5 7 14 15 21 8 7 13 16 10
20 -3 5 -1 11 5 15 6 4 8 10 5 15 -3 4 4 6 15 3 12 -3 20 0 20 6 0 7 -4 9 -10
6 -5 -3 -10 -4 -10 0 0 3 37 29 83 59 47 30 99 74 121 102 l40 49 -35 -30
c-18 -16 -38 -36 -42 -43 -5 -8 -17 -10 -30 -7 -16 5 -18 4 -8 -3 11 -8 9 -12
-10 -23 -27 -15 -28 -15 -124 -30 -146 -22 -150 -22 -135 -4 26 31 56 40 150
46 l95 5 -89 2 c-95 2 -146 -13 -194 -58 -12 -12 -22 -17 -22 -13 0 4 -4 1
-10 -7 -5 -8 -12 -12 -15 -8 -8 8 87 79 140 105 22 11 71 30 108 43 37 12 82
34 100 48 l32 26 -24 -27 c-13 -14 -45 -34 -70 -44 -57 -21 -59 -22 -41 -33
30 -19 86 -11 131 20 45 29 109 100 109 119 0 5 6 14 14 18 7 4 19 26 27 48
l14 40 3 -55 c2 -31 -4 -82 -12 -115z m-2308 104 c14 -30 27 -47 34 -43 6 4 8
3 4 -4 -8 -14 45 -75 100 -113 41 -28 84 -36 118 -23 19 7 21 24 3 24 -14 0
-87 37 -102 52 -5 6 13 -1 40 -15 28 -14 70 -30 95 -37 91 -24 240 -122 240
-156 0 -10 -20 2 -56 35 -69 63 -105 74 -226 70 -56 -3 -94 0 -91 5 4 5 1 6
-6 2 -7 -4 -26 5 -47 23 -19 17 -38 31 -41 31 -17 0 79 -87 144 -129 40 -27
70 -51 67 -54 -3 -3 7 -12 23 -20 15 -8 37 -25 48 -38 19 -22 19 -22 1 -15
-12 4 -23 2 -29 -6 -6 -10 -7 -9 -4 4 3 9 0 19 -8 22 -9 3 -12 0 -8 -10 4 -11
-4 -9 -31 7 -25 14 -35 27 -31 37 5 13 3 13 -12 1 -9 -8 -14 -9 -10 -2 4 6 2
15 -4 18 -5 4 -8 13 -5 21 4 10 -4 14 -33 14 -48 0 -106 43 -139 103 -20 38
-22 39 -17 12 10 -45 37 -87 75 -112 18 -13 26 -23 18 -23 -8 0 -27 9 -41 20
-14 11 -30 20 -37 20 -7 0 -9 8 -5 21 4 12 3 19 -2 16 -5 -3 -9 2 -10 11 0 9
-12 61 -27 116 -26 97 -33 166 -18 166 4 0 17 -23 30 -51z m1788 -7 l-29 -27
23 32 c13 18 26 30 29 28 3 -3 -8 -18 -23 -33z m-1246 -103 c41 -42 107 -145
98 -154 -9 -10 -83 16 -105 37 l-26 23 19 -30 c10 -16 23 -33 28 -37 5 -3 11
-14 12 -23 2 -13 -6 -10 -29 12 -40 38 -117 89 -160 108 l-32 14 40 1 c58 1
26 15 -65 29 -41 7 -76 14 -79 16 -2 3 32 5 77 5 76 0 86 -3 166 -44 l86 -44
-21 30 c-20 27 -80 79 -139 120 -23 16 -22 16 30 0 39 -12 68 -30 100 -63z
m1350 76 c0 -3 -24 -21 -54 -41 -47 -31 -116 -102 -116 -119 0 -4 12 2 28 13
61 44 149 72 223 72 40 0 70 -3 67 -6 -3 -3 -39 -10 -79 -16 -89 -12 -123 -27
-64 -28 l40 0 -50 -28 c-65 -36 -153 -100 -157 -114 -3 -9 -6 -9 -12 0 -4 6 9
29 31 53 37 42 34 43 -17 9 -14 -9 -39 -22 -55 -27 -27 -9 -31 -8 -31 8 0 9 4
15 8 13 4 -3 9 1 10 8 0 7 2 18 2 23 2 19 93 130 117 143 18 9 86 35 107 41 1
1 2 -1 2 -4z m-1487 -216 c57 -37 66 -50 30 -39 -24 7 -115 25 -175 34 -10 1
-21 5 -24 9 -4 4 -15 7 -25 7 -10 0 -21 5 -24 10 -4 6 26 10 83 10 82 0 92 -2
135 -31z m2007 -14 c0 -8 -2 -15 -4 -15 -2 0 -6 7 -10 15 -3 8 -1 15 4 15 6 0
10 -7 10 -15z m100 -6 c0 -11 -4 -17 -10 -14 -5 3 -10 13 -10 21 0 8 5 14 10
14 6 0 10 -9 10 -21z m-2710 4 c0 -5 -4 -14 -9 -21 -6 -10 -10 -9 -14 7 -3 14
0 21 9 21 8 0 14 -3 14 -7z m79 -19 c-9 -11 -9 -17 1 -29 10 -12 5 -31 -24
-103 -38 -96 -66 -201 -68 -260 0 -20 -6 -43 -12 -51 -16 -20 -15 -396 2 -412
20 -21 14 -39 -15 -40 -26 0 -26 -1 -7 -9 17 -7 24 -22 32 -67 6 -35 6 -60 1
-64 -6 -3 -5 -34 3 -77 9 -56 9 -76 0 -98 -16 -34 -27 -23 -23 24 1 21 -12 94
-30 162 -17 69 -32 139 -34 155 -1 17 -5 75 -10 130 -12 161 15 365 74 555 35
114 41 130 50 130 3 0 17 18 30 40 14 21 28 37 33 34 5 -3 4 -12 -3 -20z m460
-10 c57 -23 28 -26 -33 -4 -31 12 -56 23 -56 26 0 6 48 -6 89 -22z m1700 21
c-8 -8 -139 -55 -139 -50 0 6 59 36 90 46 29 9 55 11 49 4z m-2011 -40 c-6
-14 -15 -25 -20 -25 -11 0 -10 7 4 30 18 29 30 25 16 -5z m1864 -3 c-67 -71
-97 -106 -97 -116 0 -11 -220 -125 -242 -126 -7 0 -13 4 -13 9 0 12 64 67 99
86 16 8 32 24 36 34 6 21 125 114 166 130 13 5 36 10 51 10 l26 1 -26 -28z
m558 -5 c0 -7 8 -17 18 -23 10 -7 23 -29 30 -50 6 -22 19 -61 27 -89 37 -120
56 -246 62 -393 7 -176 -3 -266 -49 -446 -19 -76 -28 -131 -25 -153 4 -24 2
-33 -6 -30 -8 2 -13 38 -14 108 -3 124 11 206 35 212 10 3 6 5 -10 6 -21 1
-26 5 -21 17 4 10 13 14 26 10 14 -3 17 -2 9 6 -7 7 -9 49 -5 127 3 68 1 153
-6 206 -7 50 -14 109 -16 132 -4 52 -27 141 -55 215 -12 32 -21 60 -20 63 0 3
-7 19 -15 35 -9 17 -13 40 -9 55 5 21 9 23 25 14 10 -5 19 -15 19 -22z m-175
3 c-7 -11 25 -36 65 -53 l35 -14 -47 -8 c-39 -6 -53 -4 -80 14 -18 11 -29 21
-25 21 4 0 2 10 -4 22 -9 17 -1 14 39 -15 27 -20 56 -37 63 -37 8 0 0 9 -18
20 -37 22 -60 57 -38 57 8 0 12 -3 10 -7z m-2218 -39 c-20 -15 -35 -30 -33
-32 3 -2 -12 -5 -32 -6 -21 -1 -30 1 -22 4 8 4 32 19 54 35 51 37 80 37 33 -1z
m143 15 c0 -2 -7 -7 -16 -10 -8 -3 -12 -2 -9 4 6 10 25 14 25 6z m-210 -20
c-17 -17 -74 -30 -65 -15 4 5 15 9 25 9 10 0 22 5 25 10 3 6 11 10 18 10 7 0
6 -5 -3 -14z m164 -18 c-5 -10 -4 -10 6 -1 14 13 40 7 40 -10 0 -6 -3 -8 -6
-5 -3 4 -30 -5 -60 -19 -30 -13 -80 -27 -111 -30 -53 -6 -57 -5 -44 10 7 10
26 17 41 17 34 0 91 19 110 36 18 17 34 18 24 2z m1816 -3 c0 -2 -10 -10 -22
-16 -21 -11 -22 -11 -9 4 13 16 31 23 31 12z m190 -7 c0 -4 34 -14 75 -23 41
-9 72 -21 69 -26 -13 -21 -133 6 -175 40 l-24 19 28 -1 c15 -1 27 -5 27 -9z
m-1486 -47 c3 -5 -1 -11 -9 -15 -13 -5 -35 20 -35 39 0 7 37 -12 44 -24z m966
17 c0 -5 5 -6 10 -3 6 3 10 1 10 -5 0 -7 -7 -9 -16 -6 -9 4 -23 1 -30 -5 -10
-8 -14 -8 -14 0 0 6 5 11 11 11 5 0 8 4 5 8 -3 5 1 9 9 9 8 0 15 -4 15 -9z
m-1460 -12 c0 -2 -7 -7 -16 -10 -8 -3 -12 -2 -9 4 6 10 25 14 25 6z m-71 -29
c-2 -1 -13 -9 -24 -17 -19 -14 -19 -14 -6 3 7 9 18 17 24 17 6 0 8 -1 6 -3z
m226 -28 c28 -11 70 -33 93 -50 46 -34 59 -52 15 -21 -16 10 -39 24 -53 31
-21 10 -22 10 -5 -1 81 -53 196 -198 157 -198 -18 0 -122 56 -122 66 0 3 5 2
12 -2 7 -4 2 6 -10 23 -24 34 -118 101 -173 123 -33 14 -58 36 -59 53 0 12 87
-3 145 -24z m1763 19 c-2 -7 -26 -24 -53 -38 -28 -14 -54 -30 -60 -36 -5 -6
-26 -20 -45 -32 -34 -20 -110 -93 -80 -77 10 6 9 1 -3 -13 -16 -17 -96 -62
-112 -62 -8 0 0 39 10 47 4 5 5 2 0 -6 -5 -9 -4 -12 3 -7 6 4 9 12 6 19 -5 14
38 64 101 116 41 34 33 33 -20 -3 l-30 -20 18 21 c28 32 112 73 180 88 80 17
89 18 85 3z m255 -89 c41 -55 44 -66 22 -66 -8 0 -12 3 -10 6 7 12 -24 43 -36
35 -8 -4 -10 -3 -5 5 4 6 -2 25 -14 41 -38 53 2 34 43 -21z m-1286 -1 c-3 -7
-5 -2 -5 12 0 14 2 19 5 13 2 -7 2 -19 0 -25z m-321 -45 c18 -16 34 -33 34
-40 0 -14 -79 -28 -107 -19 -12 4 -18 15 -17 34 2 60 34 69 90 25z m885 -3
c12 -49 -35 -73 -95 -50 -34 13 -32 30 7 57 42 29 79 26 88 -7z m1046 -12 c-3
-8 -6 -5 -6 6 -1 11 2 17 5 13 3 -3 4 -12 1 -19z m-3070 -30 c-3 -8 -6 -5 -6
6 -1 11 2 17 5 13 3 -3 4 -12 1 -19z m2106 5 c-22 -61 -98 -133 -140 -133 -15
0 -73 -61 -67 -71 3 -5 0 -9 -5 -9 -14 0 -14 1 4 43 8 20 23 41 32 46 16 9 15
10 -7 11 -24 1 -24 1 -6 15 11 8 27 15 36 15 10 0 37 15 61 33 41 30 91 65 96
66 1 1 0 -7 -4 -16z m-1104 -10 c7 -1 25 -13 40 -27 14 -13 51 -36 81 -49 46
-21 51 -25 28 -26 -20 -1 -26 -5 -22 -15 3 -8 13 -12 22 -9 14 4 15 3 2 -5
-12 -9 -11 -14 5 -33 l20 -22 -22 12 c-13 6 -23 18 -23 26 0 7 -15 19 -34 25
-46 15 -82 44 -112 91 -27 43 -30 54 -11 42 6 -4 18 -8 26 -10z m1290 -44
c-36 -56 -98 -102 -164 -121 -99 -29 -198 -106 -243 -190 -19 -37 -21 -39 -16
-13 8 36 40 102 63 130 15 19 15 19 -2 5 -25 -18 -49 -69 -81 -163 -30 -89
-31 -98 -12 -72 13 18 14 18 26 -4 12 -24 9 -79 -10 -156 -14 -58 -13 -73 4
-50 13 18 13 16 7 -20 -4 -22 -13 -50 -20 -62 -6 -13 -9 -23 -6 -23 2 0 21 32
40 70 19 39 32 70 28 70 -4 0 8 15 25 33 18 18 29 36 26 40 -12 12 87 116 120
127 78 25 168 -60 165 -155 0 -11 -7 0 -14 25 -37 118 -106 118 -164 2 -15
-31 -34 -75 -41 -97 -14 -44 -46 -95 -61 -95 -5 0 0 15 11 33 27 43 27 87 0
87 -24 0 -68 -58 -116 -153 -57 -111 -141 -156 -229 -123 -68 27 -74 41 -26
66 23 11 41 25 41 30 0 6 19 32 42 58 24 26 33 38 20 28 -25 -22 -29 -11 -7
18 18 23 20 72 4 82 -6 3 -9 21 -7 38 3 17 1 45 -3 61 l-7 30 -1 -29 c-1 -25
-3 -27 -18 -15 -14 13 -16 11 -11 -12 4 -25 3 -25 -20 -13 -27 14 -154 17
-188 4 -26 -10 -41 3 -54 47 -8 28 -8 28 -10 3 l-2 -25 -8 25 c-4 14 -8 53 -9
88 -1 34 -8 79 -16 99 -15 36 -15 36 5 18 16 -14 20 -15 24 -4 5 15 44 149 55
189 7 29 51 42 51 16 0 -9 4 -16 10 -16 13 0 32 -72 40 -155 l7 -70 2 93 c0
50 5 92 10 92 5 0 11 10 13 23 2 12 9 21 16 19 6 -1 12 3 12 9 0 11 29 38 41
39 4 0 9 -26 13 -57 4 -32 17 -91 30 -132 23 -73 23 -73 40 -50 18 26 21 16 7
-27 -10 -31 -23 -210 -15 -202 2 3 13 50 23 105 11 55 27 117 35 138 9 20 16
45 16 55 0 10 6 30 14 45 l14 26 16 -23 c22 -31 20 -97 -4 -160 -11 -28 -18
-54 -16 -56 3 -2 27 42 56 97 76 148 145 208 274 240 59 15 100 35 145 72 19
16 37 26 39 24 3 -2 -10 -28 -29 -56z m-1472 8 c30 -20 81 -42 122 -52 38 -9
90 -29 114 -45 49 -31 123 -122 164 -200 27 -53 41 -62 23 -16 -16 42 -13 131
5 146 11 9 15 9 15 1 0 -7 5 -9 10 -6 6 3 10 -1 10 -10 0 -9 11 -49 24 -88 13
-40 29 -103 36 -142 6 -38 18 -91 26 -117 13 -40 13 -53 2 -83 -11 -32 -10
-40 5 -67 10 -17 16 -32 14 -35 -7 -7 -31 29 -72 105 -22 42 -46 78 -53 80
-18 6 80 -154 135 -219 27 -32 63 -66 81 -76 l33 -20 -23 -15 c-39 -26 -95
-39 -132 -33 -51 10 -111 66 -147 140 -35 72 -93 145 -115 145 -20 0 -18 -64
3 -98 l17 -27 -27 24 c-17 15 -35 49 -47 88 -21 69 -69 146 -101 163 -38 21
-71 -2 -96 -67 l-14 -38 5 39 c14 107 126 158 198 90 28 -27 108 -128 109
-139 0 -2 16 -37 35 -76 35 -71 56 -88 35 -28 -6 18 -11 39 -11 48 1 13 3 12
16 -4 14 -19 14 -17 8 25 -4 25 -11 53 -15 62 -10 19 -12 79 -3 102 7 18 34
22 34 4 0 -6 2 -9 5 -6 7 7 -44 159 -66 194 -11 18 -27 38 -36 45 -10 8 -5 -2
9 -21 23 -31 58 -102 58 -119 0 -3 -15 17 -34 44 -62 92 -123 136 -240 175
-37 12 -84 36 -103 53 -44 38 -105 132 -75 113 5 -3 32 -21 59 -39z m-232 23
c3 -5 1 -10 -4 -10 -6 0 -11 5 -11 10 0 6 2 10 4 10 3 0 8 -4 11 -10z m1930 1
c-22 -4 -45 -10 -52 -14 -6 -4 -14 -3 -17 2 -7 11 23 18 74 18 35 0 35 0 -5
-6z m-1856 -27 c10 -9 -35 -3 -49 6 -11 8 -7 9 15 4 17 -4 32 -8 34 -10z m-82
-60 c-3 -3 -12 -4 -19 -1 -8 3 -5 6 6 6 11 1 17 -2 13 -5z m1996 -18 c18 -7
42 -24 54 -37 25 -28 60 -95 65 -124 2 -11 8 -23 13 -27 6 -5 4 -8 -5 -8 -9 0
-24 15 -34 34 -10 19 -32 47 -48 63 l-29 28 35 -59 c39 -64 48 -97 16 -56 -11
14 -20 21 -20 16 0 -6 -16 5 -35 24 -19 18 -32 37 -29 41 2 4 -1 11 -7 15 -8
4 -9 3 -5 -4 9 -16 6 -15 -40 4 -22 9 -64 20 -94 24 l-55 7 58 2 c34 0 71 -5
90 -14 29 -15 30 -15 12 0 -11 8 -38 21 -60 27 l-40 12 35 4 c19 2 37 7 40 12
3 4 31 0 62 -10 63 -19 67 -11 10 20 -43 22 -36 26 11 6z m-2088 -21 l-30 -25
36 15 c20 7 60 16 90 19 l54 6 -40 -14 -40 -15 37 6 c20 3 45 0 55 -6 17 -10
17 -10 -3 -11 -26 0 -112 -29 -119 -40 -3 -4 18 0 45 11 28 10 67 19 88 18 32
0 29 -2 -25 -14 -65 -14 -89 -25 -138 -59 -16 -11 -34 -21 -39 -21 -5 0 -11
-6 -14 -14 -3 -9 0 -11 8 -6 9 5 11 4 6 -4 -4 -6 -11 -9 -16 -6 -5 3 -14 -4
-20 -16 -7 -11 -14 -18 -17 -15 -4 3 2 15 12 26 10 11 15 20 10 20 -4 0 0 12
10 26 9 14 15 28 12 30 -2 3 -21 -20 -41 -51 -21 -30 -41 -55 -46 -55 -10 0
33 111 62 158 11 18 32 39 46 47 42 22 50 17 17 -10z m338 -69 c21 -16 16 -21
-33 -31 l-35 -8 30 -12 29 -13 -39 -11 c-22 -6 -50 -11 -63 -11 -30 0 -89 -25
-128 -55 -49 -37 -50 -30 -4 24 51 60 102 97 161 115 57 18 60 18 82 2z m1544
-16 c43 -19 122 -90 143 -129 l11 -22 -28 18 -28 18 19 -30 c36 -55 45 -80 51
-135 l5 -55 -15 48 c-9 26 -20 45 -25 42 -5 -3 -15 3 -22 15 -17 26 -28 25
-28 -2 0 -20 -3 -18 -21 12 -11 19 -37 50 -57 67 l-37 33 36 0 c23 0 47 -8 65
-22 15 -13 25 -17 20 -10 -4 6 -3 12 2 12 5 0 9 7 9 16 0 19 -36 38 -111 58
-67 17 -94 36 -55 37 26 1 27 0 -51 26 -12 4 -12 7 4 18 21 16 48 12 113 -15z
m-1274 -56 c-2 -13 18 -35 27 -29 4 3 13 -2 20 -10 7 -8 10 -15 6 -15 -16 0
-21 3 -19 11 2 4 -4 6 -13 2 -12 -5 -12 -8 6 -20 11 -8 24 -12 28 -9 5 3 9 -1
9 -8 0 -9 -7 -12 -16 -8 -14 5 -14 3 -2 -11 7 -9 9 -17 3 -17 -11 0 -31 23
-47 54 -7 11 -18 20 -26 18 -8 -2 -11 0 -7 4 4 4 0 13 -10 21 -10 9 -11 12 -2
7 8 -4 23 -14 33 -22 24 -21 21 -3 -4 24 -19 21 -20 22 -3 20 11 -2 18 -7 17
-12z m894 -13 c-9 -11 -4 -10 21 3 30 16 29 14 -16 -34 -46 -48 -70 -64 -57
-37 4 6 -1 3 -9 -7 -9 -11 -16 -25 -16 -30 0 -6 4 -4 10 4 5 8 12 12 15 9 3
-4 -1 -12 -10 -19 -26 -21 -29 13 -5 54 12 20 24 36 27 36 2 0 1 -4 -2 -10 -9
-15 1 -12 14 4 9 11 9 16 0 22 -8 5 -9 3 -4 -6 5 -9 4 -11 -4 -6 -17 11 2 32
28 32 16 0 18 -3 8 -15z m318 -11 c3 -5 1 -10 -4 -10 -6 0 -11 5 -11 10 0 6 2
10 4 10 3 0 8 -4 11 -10z m36 -7 c-10 -4 -10 -7 -1 -13 7 -5 2 -7 -14 -7 -24
0 -25 1 -9 13 10 7 23 13 28 13 6 0 4 -3 -4 -6z m-1371 -27 c0 -8 6 -16 13
-19 20 -7 -119 -68 -171 -73 -26 -3 -58 -1 -72 5 -24 10 -24 10 8 10 36 1 87
25 141 65 38 28 81 35 81 12z m1241 -33 c47 -31 76 -43 105 -44 l39 -1 -30 -9
c-44 -14 -112 -4 -177 26 -53 24 -75 45 -47 45 6 0 9 6 6 13 -10 26 40 11 104
-30z m-1586 18 c3 -5 1 -12 -5 -16 -5 -3 -10 -11 -10 -16 0 -6 12 -1 26 10 15
12 38 21 52 21 l26 0 -31 -32 c-17 -18 -40 -49 -52 -68 -19 -32 -26 -29 -22
10 1 9 -10 2 -24 -15 -19 -22 -24 -25 -20 -10 4 11 -2 7 -11 -10 -10 -16 -19
-46 -21 -65 -5 -46 -13 -52 -13 -8 0 49 24 123 54 169 26 39 40 47 51 30z
m-355 -34 c0 -1 -24 -25 -52 -52 l-53 -50 50 53 c46 48 55 57 55 49z m1730
-84 c-1 -17 -97 -116 -103 -106 -9 14 46 95 70 104 24 10 33 10 33 2z m-869
-23 c13 -10 21 -19 16 -20 -4 0 -1 -16 7 -35 19 -44 9 -44 -34 0 -54 55 -44
102 11 55z m1594 -8 c-3 -3 -11 0 -18 7 -9 10 -8 11 6 5 10 -3 15 -9 12 -12z
m-2365 4 c0 -3 -4 -8 -10 -11 -5 -3 -10 -1 -10 4 0 6 5 11 10 11 6 0 10 -2 10
-4z m21 -47 c-5 -13 -10 -19 -10 -12 -1 15 10 45 15 40 3 -2 0 -15 -5 -28z
m-60 -22 c-10 -9 -11 -8 -5 6 3 10 9 15 12 12 3 -3 0 -11 -7 -18z m1330 -42
c41 -27 48 -42 24 -51 -8 -4 -13 -10 -10 -14 3 -4 -12 -11 -33 -14 -103 -17
-132 -18 -168 -5 -22 7 -45 12 -53 10 -7 -1 -10 2 -7 8 4 5 -1 14 -9 19 -14 8
-14 11 2 31 43 53 185 62 254 16z m-1350 -71 c-9 -38 -9 -38 -10 -7 -1 33 10
74 16 57 2 -6 -1 -28 -6 -50z m2388 -84 c1 -19 -4 -42 -10 -50 -7 -11 -8 -3
-4 30 4 32 3 41 -4 30 -9 -13 -10 -13 -15 0 -11 36 -15 80 -6 80 5 0 11 -12
13 -27 3 -22 5 -20 7 12 l2 40 9 -40 c4 -22 8 -56 8 -75z m-2294 73 c-6 -27
-6 -27 10 -8 16 19 16 19 11 -14 -3 -18 -6 -43 -6 -55 0 -17 -2 -18 -10 -6 -7
11 -10 3 -11 -30 -1 -43 -1 -44 -10 -15 -5 17 -7 46 -4 65 10 64 17 90 22 90
3 0 2 -12 -2 -27z m332 -75 c-3 -7 -5 -2 -5 12 0 14 2 19 5 13 2 -7 2 -19 0
-25z m1614 -21 c-10 -9 -11 -8 -5 6 3 10 9 15 12 12 3 -3 0 -11 -7 -18z m441
1 c-7 -7 -12 -8 -12 -2 0 14 12 26 19 19 2 -3 -1 -11 -7 -17z m-2499 -23 c-3
-9 -8 -14 -10 -11 -3 3 -2 9 2 15 9 16 15 13 8 -4z m271 -50 c-4 -8 -11 -15
-16 -15 -6 0 -5 6 2 15 7 8 14 15 16 15 2 0 1 -7 -2 -15z m339 -86 c11 -65 25
-105 57 -164 40 -72 158 -214 143 -171 -4 13 -3 17 5 13 6 -4 13 -22 17 -40 4
-17 9 -41 11 -52 l5 -20 -12 20 c-7 11 -28 36 -48 56 -54 55 -112 132 -148
196 -21 37 -33 51 -33 38 -1 -20 -1 -20 -15 -1 -16 21 -21 71 -7 62 5 -3 7 34
5 82 -3 102 1 98 20 -19z m1309 -53 c8 5 9 -1 5 -17 -4 -13 -7 -34 -7 -47 0
-13 -6 -22 -12 -21 -26 3 -35 -2 -45 -23 -16 -34 -108 -157 -158 -211 -47 -50
-57 -44 -31 18 16 37 32 48 21 15 -10 -30 88 78 117 130 14 25 31 62 38 83 6
20 15 35 19 33 8 -5 30 97 33 155 1 19 4 -1 5 -44 3 -54 7 -76 15 -71z m-1939
119 c-3 -9 -8 -14 -10 -11 -3 3 -2 9 2 15 9 16 15 13 8 -4z m267 -25 c0 -5 -5
-10 -11 -10 -5 0 -7 5 -4 10 3 6 8 10 11 10 2 0 4 -4 4 -10z m-223 -22 c-3 -8
-6 -5 -6 6 -1 11 2 17 5 13 3 -3 4 -12 1 -19z m1222 -31 c171 0 193 2 211 18
28 25 25 3 -3 -23 -20 -19 -32 -21 -100 -18 -42 2 -77 -1 -77 -5 0 -17 -20 -9
-21 9 0 12 -3 10 -10 -8 l-10 -25 -14 25 c-8 14 -14 20 -15 15 0 -6 -30 -11
-67 -12 -73 -2 -113 14 -113 45 1 15 2 15 15 -2 13 -17 31 -18 204 -19z
m-1212 -9 c-3 -8 -6 -5 -6 6 -1 11 2 17 5 13 3 -3 4 -12 1 -19z m17 -34 c3 -8
2 -12 -4 -9 -6 3 -10 10 -10 16 0 14 7 11 14 -7z m2417 -37 c-10 -9 -11 -8 -5
6 3 10 9 15 12 12 3 -3 0 -11 -7 -18z m-470 -102 c-12 -41 -21 -88 -21 -103 0
-15 -4 -32 -9 -37 -5 -6 -11 -23 -14 -40 -2 -16 -5 0 -6 37 0 45 6 89 20 130
43 131 65 140 30 13z m-1600 68 c13 -16 12 -17 -3 -4 -10 7 -18 15 -18 17 0 8
8 3 21 -13z m135 -82 c9 -31 19 -78 21 -106 4 -50 4 -50 -10 -20 -14 27 -57
193 -57 212 1 21 31 -36 46 -86z m1682 -333 c17 -21 37 -24 26 -5 -6 9 -5 9 7
0 13 -10 26 -1 81 55 36 37 80 89 98 115 17 27 39 51 48 54 10 4 43 34 75 67
48 52 56 56 46 31 -13 -38 -48 -95 -58 -95 -11 0 -72 -90 -76 -112 -8 -41
-157 -208 -186 -208 -9 0 -19 -3 -22 -7 -2 -5 -3 -3 -1 2 1 6 -4 19 -12 30
-14 18 -14 18 -15 -1 -2 -35 3 -59 21 -101 11 -24 17 -43 14 -43 -3 0 -26 11
-52 24 l-48 24 -27 99 c-15 54 -29 107 -31 118 -15 84 -19 101 -28 113 -8 9
-5 12 11 12 26 0 26 1 -2 86 -19 54 -22 75 -14 98 9 26 15 12 69 -155 33 -101
67 -192 76 -201z m-845 312 c-10 -17 -33 -45 -53 -63 -19 -17 -27 -23 -18 -13
16 18 16 21 1 31 -14 10 -14 14 1 41 16 27 16 24 0 -23 -5 -17 -5 -17 9 -1 8
10 16 16 19 13 2 -3 15 6 28 20 31 33 35 32 13 -5z m457 -69 c-11 -23 -27 -65
-35 -94 l-15 -52 3 51 c3 33 14 69 31 99 33 56 46 53 16 -4z m-1130 -13 c30
-53 36 -88 23 -148 l-6 -33 -17 34 c-14 26 -15 37 -6 51 8 14 7 29 -7 66 -39
100 -34 111 13 30z m877 -83 c-166 -253 -167 -256 -166 -370 1 -67 1 -69 14
-40 20 43 18 5 -2 -41 -16 -38 -16 -38 -24 -14 -14 49 -9 154 12 232 12 43 25
78 31 78 5 0 7 4 4 9 -3 5 1 12 10 15 9 4 14 13 10 21 -3 8 0 14 6 12 6 -1 13
4 16 12 3 9 0 11 -8 6 -9 -6 -9 -3 -1 14 13 24 23 28 15 6 -12 -31 4 -13 52
58 40 60 99 127 110 127 2 0 -34 -56 -79 -125z m-604 -25 c84 -128 91 -135 43
-45 -20 39 -29 61 -20 50 27 -34 61 -109 56 -124 -2 -8 0 -11 5 -8 19 12 53
-132 53 -223 0 -113 -18 -144 -34 -60 -6 27 -5 32 4 20 8 -11 10 8 8 81 -4
107 2 93 -139 305 -36 54 -69 108 -72 118 -15 41 27 -10 96 -114z m847 8 c0
-13 -5 -30 -10 -38 -7 -11 -10 -5 -10 23 0 20 5 37 10 37 6 0 10 -10 10 -22z
m-466 -67 c-9 -23 -18 -40 -21 -38 -2 3 4 23 13 46 9 23 18 40 21 38 2 -3 -4
-23 -13 -46z m-171 5 c3 3 3 -3 0 -15 -7 -28 -9 -27 -22 12 -9 27 -9 29 3 15
7 -10 16 -15 19 -12z m-571 -68 c-8 -8 -9 -4 -5 13 4 13 8 18 11 10 2 -7 -1
-18 -6 -23z m942 -33 c-4 -8 -10 -15 -15 -15 -4 0 -6 7 -3 15 4 8 10 15 15 15
4 0 6 -7 3 -15z m355 -30 c0 -5 -4 -3 -9 5 -5 8 -9 22 -9 30 0 16 17 -16 18
-35z m-1307 8 c-3 -16 -7 -22 -10 -15 -4 13 4 42 11 42 2 0 2 -12 -1 -27z
m128 -5 c0 -16 -3 -19 -11 -11 -6 6 -8 16 -5 22 11 17 16 13 16 -11z m244 6
c3 -8 2 -12 -4 -9 -6 3 -10 10 -10 16 0 14 7 11 14 -7z m566 -8 c0 -3 -4 -8
-10 -11 -5 -3 -10 -1 -10 4 0 6 5 11 10 11 6 0 10 -2 10 -4z m-603 -88 c-3 -8
-6 -5 -6 6 -1 11 2 17 5 13 3 -3 4 -12 1 -19z m-188 -28 c6 -19 7 -30 2 -25
-5 6 -13 24 -17 40 -9 39 0 30 15 -15z m816 -20 c-9 -41 -17 -33 -9 9 4 17 9
30 11 27 3 -2 2 -19 -2 -36z m205 16 c0 -3 -4 -8 -10 -11 -5 -3 -10 -1 -10 4
0 6 5 11 10 11 6 0 10 -2 10 -4z m10 -32 c0 -8 -19 -13 -24 -6 -3 5 1 9 9 9 8
0 15 -2 15 -3z m-843 -46 c-3 -7 -5 -2 -5 12 0 14 2 19 5 13 2 -7 2 -19 0 -25z
m-143 -14 c3 -8 2 -12 -4 -9 -6 3 -10 10 -10 16 0 14 7 11 14 -7z m927 -67
c-14 -35 -29 -35 -27 1 1 30 29 61 34 38 2 -7 -2 -25 -7 -39z m-717 -6 c-6 -6
-11 1 -18 29 l-7 25 15 -25 c8 -14 12 -27 10 -29z m623 -13 c-3 -8 -6 -5 -6 6
-1 11 2 17 5 13 3 -3 4 -12 1 -19z m-542 -25 c-4 -10 -11 -34 -15 -53 -8 -35
-8 -35 -9 -5 -1 39 9 75 21 75 6 0 7 -8 3 -17z m360 -33 c10 -46 0 -36 -14 14
-5 22 -6 35 -2 30 5 -5 12 -25 16 -44z m-8 -62 c-3 -8 -6 -5 -6 6 -1 11 2 17
5 13 3 -3 4 -12 1 -19z m-307 -73 c0 -5 -5 -3 -10 5 -5 8 -10 20 -10 25 0 6 5
3 10 -5 5 -8 10 -19 10 -25z m14 -31 c3 -8 2 -12 -4 -9 -6 3 -10 10 -10 16 0
14 7 11 14 -7z m191 -38 c-15 -20 -31 -33 -36 -30 -5 3 -9 -1 -9 -9 0 -8 -7
-21 -17 -28 -15 -13 -15 -11 1 19 9 18 21 30 25 27 5 -2 19 11 32 30 13 18 25
32 27 30 2 -2 -8 -20 -23 -39z m-92 -69 c7 -24 -6 -14 -45 36 l-33 42 37 -30
c19 -16 38 -38 41 -48z m-17 -43 c17 -41 19 -98 3 -88 -8 5 -10 -1 -5 -19 3
-14 2 -28 -3 -31 -5 -3 -11 27 -14 67 -3 39 -8 83 -12 96 -12 37 14 16 31 -25z
m32 -96 l-2 -113 -5 105 c-4 58 -5 108 -3 113 9 22 12 -4 10 -105z m19 -5 c-3
-10 -5 -4 -5 12 0 17 2 24 5 18 2 -7 2 -21 0 -30z m-37 -63 c0 -5 -5 -10 -11
-10 -5 0 -7 5 -4 10 3 6 8 10 11 10 2 0 4 -4 4 -10z"/>
<path d="M2071 3664 c0 -11 3 -14 6 -6 3 7 2 16 -1 19 -3 4 -6 -2 -5 -13z"/>
<path d="M2241 3564 c0 -11 3 -14 6 -6 3 7 2 16 -1 19 -3 4 -6 -2 -5 -13z"/>
<path d="M2150 3418 c0 -25 61 -128 107 -180 70 -80 84 -92 51 -48 -13 19 -48
67 -76 106 -29 39 -52 75 -52 80 -1 10 -30 52 -30 42z"/>
<path d="M2370 3163 c0 -4 5 -15 10 -23 8 -13 10 -13 10 2 0 9 -4 20 -10 23
-5 3 -10 3 -10 -2z"/>
<path d="M2330 3146 c0 -2 8 -10 18 -17 15 -13 16 -12 3 4 -13 16 -21 21 -21
13z"/>
<path d="M2825 3419 c-4 -6 -5 -12 -2 -15 2 -3 7 2 10 11 7 17 1 20 -8 4z"/>
<path d="M2762 3312 c-29 -42 -69 -99 -89 -127 l-36 -50 42 45 c54 59 127 159
135 188 4 12 6 22 4 22 -2 -1 -27 -35 -56 -78z"/>
<path d="M2582 3091 c-7 -21 -12 -45 -11 -52 0 -8 7 8 15 35 9 26 13 50 11 52
-2 2 -9 -13 -15 -35z"/>
<path d="M2871 3954 c0 -11 3 -14 6 -6 3 7 2 16 -1 19 -3 4 -6 -2 -5 -13z"/>
<path d="M2101 3954 c0 -11 3 -14 6 -6 3 7 2 16 -1 19 -3 4 -6 -2 -5 -13z"/>
<path d="M2112 3910 c0 -14 2 -19 5 -12 2 6 2 18 0 25 -3 6 -5 1 -5 -13z"/>
<path d="M2486 3873 c-6 -14 -5 -15 5 -6 7 7 10 15 7 18 -3 3 -9 -2 -12 -12z"/>
<path d="M2394 3845 c-7 -19 -14 -42 -14 -52 1 -10 7 -2 14 17 7 19 17 43 21
53 4 9 4 17 1 17 -4 0 -14 -16 -22 -35z"/>
<path d="M2576 3850 c21 -43 24 -47 24 -28 0 9 -9 26 -20 39 l-21 24 17 -35z"/>
<path d="M2455 3820 c-9 -16 -13 -30 -11 -30 3 0 12 14 21 30 9 17 13 30 11
30 -3 0 -12 -13 -21 -30z"/>
<path d="M2460 3753 c-16 -27 -29 -55 -29 -63 0 -8 14 11 30 44 l31 59 21 -34
c11 -19 24 -54 28 -79 l6 -45 2 38 c1 25 -8 54 -25 83 -14 24 -28 44 -30 44
-2 0 -17 -21 -34 -47z"/>
<path d="M2341 3753 c-1 -29 47 -178 55 -170 3 3 -40 168 -50 192 -3 6 -5 -4
-5 -22z"/>
<path d="M2420 3759 c-7 -11 -10 -23 -7 -25 2 -2 9 7 15 21 14 30 7 33 -8 4z"/>
<path d="M2556 3757 c3 -10 9 -15 12 -12 3 3 0 11 -7 18 -10 9 -11 8 -5 -6z"/>
<path d="M2621 3715 c-7 -33 -15 -68 -17 -77 -3 -10 -3 -18 0 -18 10 0 37 101
34 127 -3 21 -7 14 -17 -32z"/>
<path d="M2572 3700 c0 -19 2 -27 5 -17 2 9 2 25 0 35 -3 9 -5 1 -5 -18z"/>
<path d="M2591 3603 c-1 -6 -4 -20 -7 -30 -5 -17 -5 -17 6 0 6 10 9 23 6 30
-3 9 -5 9 -5 0z"/>
<path d="M2513 3435 c0 -8 4 -12 9 -9 4 3 8 9 8 15 0 5 -4 9 -8 9 -5 0 -9 -7
-9 -15z"/>
<path d="M2480 3360 c0 -6 5 -8 10 -5 6 4 10 -5 10 -20 0 -17 -4 -24 -12 -19
-7 5 -8 3 -3 -5 11 -19 27 2 23 30 -3 23 -28 40 -28 19z"/>
<path d="M2878 3191 c-32 -37 -84 -121 -75 -121 2 0 21 26 42 58 21 31 47 67
58 80 11 12 18 22 15 22 -4 0 -21 -18 -40 -39z"/>
<path d="M2860 3052 c-41 -60 -44 -68 -21 -47 23 20 56 74 49 80 -2 2 -14 -13
-28 -33z"/>
<path d="M2740 2959 c-6 -11 -10 -27 -8 -36 2 -10 9 -2 20 21 18 37 7 52 -12
15z"/>
<path d="M2126 3150 c26 -39 49 -68 52 -66 5 5 -85 136 -94 136 -2 0 17 -32
42 -70z"/>
<path d="M2090 3093 c0 -11 57 -93 66 -93 3 0 -9 21 -27 48 -40 59 -39 57 -39
45z"/>
<path d="M2220 2978 c0 -14 23 -58 32 -58 4 0 8 4 8 9 0 11 -39 59 -40 49z"/>
<path d="M3001 2784 c-13 -15 -17 -24 -10 -22 12 4 46 48 37 48 -2 0 -15 -12
-27 -26z"/>
<path d="M1959 2802 c12 -23 67 -62 86 -62 6 0 1 6 -10 12 -11 6 -35 25 -54
42 -28 26 -32 27 -22 8z"/>
<path d="M2756 2255 c-23 -24 -73 -125 -62 -125 2 0 23 30 46 66 41 65 48 91
16 59z"/>
<path d="M2772 2165 c-12 -25 -20 -45 -17 -45 7 0 47 81 43 86 -3 2 -14 -17
-26 -41z"/>
<path d="M2620 1930 c0 -5 7 -10 16 -10 8 0 12 5 9 10 -3 6 -10 10 -16 10 -5
0 -9 -4 -9 -10z"/>
<path d="M2265 2050 c3 -5 8 -10 11 -10 2 0 4 5 4 10 0 6 -5 10 -11 10 -5 0
-7 -4 -4 -10z"/>
<path d="M2340 1930 c0 -5 7 -10 15 -10 8 0 15 5 15 10 0 6 -7 10 -15 10 -8 0
-15 -4 -15 -10z"/>
<path d="M3550 2573 c13 -18 26 -30 29 -28 3 3 -8 18 -23 33 l-29 27 23 -32z"/>
<path d="M1439 2583 l-24 -28 28 24 c15 14 27 26 27 28 0 8 -8 1 -31 -24z"/>
<path d="M3619 1373 c-13 -16 -12 -17 4 -4 9 7 17 15 17 17 0 8 -8 3 -21 -13z"/>
<path d="M3570 1335 c-20 -24 -6 -28 15 -5 10 11 13 20 8 20 -6 0 -16 -7 -23
-15z"/>
<path d="M3519 1273 l-24 -28 28 24 c15 14 27 26 27 28 0 8 -8 1 -31 -24z"/>
<path d="M2851 4702 c-7 -13 -6 -34 3 -68 l14 -49 -2 67 c0 37 -2 68 -3 68 -1
0 -7 -8 -12 -18z"/>
<path d="M2463 4619 c-4 -14 -12 -19 -24 -16 -15 4 -20 -5 -30 -52 -7 -31 -16
-60 -20 -65 -10 -12 0 -36 16 -36 7 0 16 19 20 46 9 62 24 94 41 87 9 -3 14 2
14 12 0 10 6 15 17 13 11 -2 24 -25 37 -63 19 -57 50 -102 60 -87 6 10 -42
108 -73 150 -28 37 -50 41 -58 11z"/>
<path d="M2120 4502 c0 -26 4 -41 10 -37 13 8 13 45 0 65 -7 11 -10 3 -10 -28z"/>
<path d="M2843 4504 c-3 -8 -1 -20 6 -27 8 -8 11 -4 11 16 0 30 -7 35 -17 11z"/>
<path d="M2060 4481 c0 -17 5 -31 10 -31 6 0 10 11 10 24 0 14 -4 28 -10 31
-6 4 -10 -7 -10 -24z"/>
<path d="M2910 4478 c0 -23 3 -29 9 -19 8 12 4 51 -5 51 -2 0 -4 -15 -4 -32z"/>
<path d="M1480 4440 c0 -13 5 -20 13 -17 6 2 12 10 12 17 0 7 -6 15 -12 18 -8
2 -13 -5 -13 -18z"/>
<path d="M2378 4378 c-35 -85 -39 -98 -29 -98 10 0 66 148 59 155 -3 3 -16
-23 -30 -57z"/>
<path d="M2215 4411 c-20 -4 -31 -13 -33 -26 -2 -17 3 -20 34 -19 35 1 54 15
54 42 0 13 -8 13 -55 3z"/>
<path d="M2710 4406 c0 -23 16 -34 58 -38 35 -3 42 -1 42 14 0 10 -3 18 -7 18
-5 1 -27 5 -50 9 -30 6 -43 5 -43 -3z"/>
<path d="M2590 4399 c0 -9 7 -36 16 -60 9 -24 20 -64 24 -89 l7 -45 1 50 c1
33 -7 69 -23 105 -13 30 -24 48 -25 39z"/>
<path d="M1490 4381 c0 -11 -5 -23 -11 -27 -15 -9 -5 -272 11 -288 8 -8 10 35
8 162 -1 94 -3 172 -5 172 -2 0 -3 -9 -3 -19z"/>
<path d="M1930 4365 c19 -19 36 -35 39 -35 3 0 -10 16 -29 35 -19 19 -36 35
-39 35 -3 0 10 -16 29 -35z"/>
<path d="M3050 4375 c-13 -14 -21 -27 -18 -30 2 -3 17 9 33 25 16 17 24 30 19
30 -6 0 -21 -11 -34 -25z"/>
<path d="M2127 4383 c-4 -3 -7 -13 -7 -21 0 -12 3 -12 15 -2 8 7 15 16 15 21
0 11 -14 12 -23 2z"/>
<path d="M2834 4379 c-8 -14 11 -33 25 -25 11 7 4 36 -9 36 -5 0 -12 -5 -16
-11z"/>
<path d="M1996 4351 c-8 -13 37 -29 59 -21 18 7 18 9 -8 19 -34 13 -44 14 -51
2z"/>
<path d="M2911 4351 c-11 -7 -9 -10 8 -16 23 -7 66 3 56 13 -10 10 -49 12 -64
3z"/>
<path d="M2790 4299 c0 -5 -5 -7 -12 -3 -7 5 -8 3 -2 -7 4 -8 11 -32 15 -54
l6 -40 2 35 c1 28 4 32 12 20 9 -12 9 -11 4 5 -4 11 -7 28 -7 38 0 9 -3 17 -9
17 -5 0 -9 -5 -9 -11z"/>
<path d="M3511 4264 c0 -11 3 -14 6 -6 3 7 2 16 -1 19 -3 4 -6 -2 -5 -13z"/>
<path d="M2192 4210 c0 -14 2 -19 5 -12 2 6 2 18 0 25 -3 6 -5 1 -5 -13z"/>
<path d="M2316 4145 c-3 -9 -6 -22 -5 -28 0 -7 5 -1 10 12 5 13 8 26 5 28 -2
2 -6 -3 -10 -12z"/>
<path d="M3526 4009 c-8 -42 0 -50 9 -9 4 17 5 34 2 36 -2 3 -7 -10 -11 -27z"/>
<path d="M1373 3824 c-96 -102 -192 -227 -228 -297 -37 -69 -38 -87 -5 -87 21
0 115 124 105 140 -9 15 20 64 64 103 32 29 39 41 35 62 -3 17 -1 24 6 20 6
-4 18 -1 27 7 12 9 15 9 9 1 -4 -8 -2 -13 7 -13 14 0 57 72 57 95 0 34 -26 23
-77 -31z"/>
<path d="M3740 3785 c0 -8 5 -15 10 -15 6 0 10 7 10 15 0 8 -4 15 -10 15 -5 0
-10 -7 -10 -15z"/>
<path d="M1220 3780 c0 -5 5 -10 10 -10 6 0 10 5 10 10 0 6 -4 10 -10 10 -5 0
-10 -4 -10 -10z"/>
<path d="M1370 3750 c0 -5 5 -10 11 -10 5 0 7 5 4 10 -3 6 -8 10 -11 10 -2 0
-4 -4 -4 -10z"/>
<path d="M1060 3621 l-25 -7 25 -7 c36 -10 40 -9 40 8 0 16 -2 17 -40 6z"/>
<path d="M3880 3622 c0 -18 17 -23 42 -13 16 7 18 10 6 10 -9 1 -23 4 -32 7
-9 3 -16 1 -16 -4z"/>
<path d="M1422 3595 c0 -11 3 -29 8 -40 11 -25 11 1 0 35 -6 20 -8 21 -8 5z"/>
<path d="M2731 3553 c-1 -6 -4 -20 -7 -30 -5 -17 -5 -17 6 0 6 10 9 23 6 30
-3 9 -5 9 -5 0z"/>
<path d="M766 3185 c-12 -77 -4 -277 12 -302 8 -13 13 -45 12 -80 -2 -85 -1
-95 11 -88 7 5 10 63 9 163 0 87 1 200 2 252 3 90 2 95 -18 98 -19 3 -23 -3
-28 -43z"/>
<path d="M4175 3220 c-9 -15 -8 -167 1 -182 4 -7 7 -84 5 -170 -2 -108 1 -158
8 -158 7 0 11 31 11 83 0 46 5 88 10 93 7 7 9 72 8 175 -3 143 -5 164 -20 167
-9 2 -19 -2 -23 -8z"/>
<path d="M780 2670 c0 -19 3 -21 12 -12 9 9 9 15 0 24 -9 9 -12 7 -12 -12z"/>
<path d="M4180 2683 c0 -4 5 -15 10 -23 8 -13 10 -13 10 2 0 9 -4 20 -10 23
-5 3 -10 3 -10 -2z"/>
<path d="M4187 2442 c-5 -7 -8 -92 -8 -190 0 -97 -1 -222 -2 -277 -2 -94 -1
-100 18 -100 19 0 20 8 23 150 1 89 -2 158 -8 170 -5 11 -11 74 -12 140 -2 68
-7 114 -11 107z"/>
<path d="M780 2407 c0 -19 3 -37 7 -40 12 -13 2 -151 -13 -174 -10 -16 -14
-54 -14 -135 0 -154 7 -190 34 -186 20 3 21 8 18 98 -1 52 -2 147 -2 210 1
143 -9 260 -21 260 -5 0 -9 -15 -9 -33z"/>
<path d="M1330 1411 c0 -3 32 -39 70 -79 39 -40 70 -70 70 -66 0 4 -31 40 -70
80 -38 39 -70 69 -70 65z"/>
<path d="M1616 991 c-9 -13 15 -35 94 -86 71 -47 235 -124 303 -144 18 -5 40
-12 50 -16 13 -5 17 -2 17 13 0 13 -11 24 -32 32 -130 48 -305 133 -375 181
-46 32 -49 33 -57 20z"/>
<path d="M3290 953 c-97 -58 -237 -125 -322 -154 -51 -17 -68 -27 -68 -41 0
-23 1 -23 95 11 115 41 185 74 279 131 90 54 114 76 100 90 -5 5 -41 -11 -84
-37z"/>
<path d="M2050 873 c0 -10 5 -25 10 -33 8 -12 10 -9 10 12 0 15 -4 30 -10 33
-5 3 -10 -2 -10 -12z"/>
<path d="M2922 870 c0 -14 2 -19 5 -12 2 6 2 18 0 25 -3 6 -5 1 -5 -13z"/>
<path d="M2060 669 c0 -16 4 -28 9 -25 5 3 9 17 9 31 0 14 -4 25 -9 25 -5 0
-9 -14 -9 -31z"/>
<path d="M2911 670 c0 -33 1 -34 11 -12 8 17 8 26 0 34 -9 9 -12 4 -11 -22z"/>
<path d="M2120 655 c0 -19 5 -35 10 -35 6 0 10 16 10 35 0 19 -4 35 -10 35 -5
0 -10 -16 -10 -35z"/>
<path d="M2845 668 c-4 -10 -4 -26 0 -35 8 -17 8 -17 12 0 3 9 3 25 0 35 -4
16 -4 16 -12 0z"/>
<path d="M2856 538 c-3 -13 -5 -39 -5 -58 1 -28 3 -25 10 19 9 55 6 80 -5 39z"/>
<path d="M2120 485 c0 -28 4 -44 10 -40 6 3 10 21 10 40 0 19 -4 37 -10 40 -6
4 -10 -12 -10 -40z"/>
<path d="M2064 420 c9 -49 19 -54 39 -20 16 26 16 29 2 24 -9 -4 -22 1 -31 12
-14 18 -15 17 -10 -16z"/>
<path d="M2916 441 c-5 -7 -17 -16 -27 -19 -18 -7 -18 -9 -3 -31 l17 -23 14
33 c14 33 13 64 -1 40z"/>
</g>
</svg>
